G04 #@! TF.FileFunction,Soldermask,Bot*
%FSLAX46Y46*%
G04 Gerber Fmt 4.6, Leading zero omitted, Abs format (unit mm)*
G04 Created by KiCad (PCBNEW 4.0.7) date 05/29/18 17:36:31*
%MOMM*%
%LPD*%
G01*
G04 APERTURE LIST*
%ADD10C,0.100000*%
%ADD11C,2.600000*%
%ADD12C,2.100000*%
%ADD13R,2.100000X2.100000*%
%ADD14R,3.000000X2.400000*%
%ADD15O,3.000000X2.400000*%
%ADD16C,2.350000*%
%ADD17C,1.840000*%
%ADD18C,1.850000*%
G04 APERTURE END LIST*
D10*
D11*
X134620000Y-100838000D03*
X86360000Y-98044000D03*
D12*
X132715000Y-107950000D03*
X132715000Y-110490000D03*
X132715000Y-113030000D03*
X132715000Y-115570000D03*
X132715000Y-118110000D03*
X132715000Y-120650000D03*
X132715000Y-123190000D03*
X132715000Y-125730000D03*
X132715000Y-128270000D03*
X132715000Y-130810000D03*
X132715000Y-133350000D03*
X132715000Y-135890000D03*
X132715000Y-138430000D03*
X132715000Y-140970000D03*
X132715000Y-143510000D03*
X132715000Y-146050000D03*
X132715000Y-148590000D03*
D13*
X117459000Y-107950000D03*
D12*
X117459000Y-110490000D03*
X117459000Y-113030000D03*
X117459000Y-115570000D03*
X117459000Y-118110000D03*
X117459000Y-120650000D03*
X117459000Y-123190000D03*
X117459000Y-125730000D03*
X117459000Y-128270000D03*
X117459000Y-130810000D03*
X117459000Y-133350000D03*
X117459000Y-135890000D03*
X117459000Y-138430000D03*
X117459000Y-140970000D03*
X117459000Y-143510000D03*
X117459000Y-146050000D03*
X117459000Y-148590000D03*
D14*
X92710000Y-114300000D03*
D15*
X92710000Y-116840000D03*
X92710000Y-119380000D03*
X92710000Y-121920000D03*
X92710000Y-124460000D03*
X92710000Y-127000000D03*
D14*
X92710000Y-133350000D03*
D15*
X92710000Y-135890000D03*
X92710000Y-138430000D03*
X92710000Y-140970000D03*
X92710000Y-143510000D03*
X92710000Y-146050000D03*
D16*
X112990000Y-92710000D03*
X107990000Y-92710000D03*
D14*
X142240000Y-123190000D03*
D15*
X142240000Y-120650000D03*
X142240000Y-118110000D03*
X142240000Y-115570000D03*
X142240000Y-113030000D03*
X142240000Y-110490000D03*
D17*
X127000000Y-94615000D03*
X129540000Y-92075000D03*
X127000000Y-89535000D03*
X119380000Y-94615000D03*
X121920000Y-92075000D03*
X119380000Y-89535000D03*
D16*
X142240000Y-105370000D03*
X142240000Y-100370000D03*
D14*
X142240000Y-140970000D03*
D15*
X142240000Y-138430000D03*
X142240000Y-135890000D03*
X142240000Y-133350000D03*
X142240000Y-130810000D03*
X142240000Y-128270000D03*
D17*
X139065000Y-147955000D03*
X141605000Y-150495000D03*
X144145000Y-147955000D03*
D18*
X91440000Y-104140000D03*
X91440000Y-101600000D03*
X91440000Y-106680000D03*
X94615000Y-90805000D03*
X97155000Y-90805000D03*
X92075000Y-90805000D03*
D11*
X86360000Y-151130000D03*
M02*
