M48
;DRILL file {KiCad 4.0.7} date 05/29/18 17:37:25
;FORMAT={-:-/ absolute / inch / decimal}
FMAT,2
INCH,TZ
T1C0.016
T2C0.030
T3C0.031
T4C0.039
T5C0.043
T6C0.047
T7C0.087
%
G90
G05
M72
T1
X3.65Y-3.8
X3.65Y-5.1
X3.7Y-4.15
X3.7Y-5.05
X3.75Y-4.65
X3.8Y-3.65
X3.8Y-4.74
X3.8Y-5.875
X3.85Y-3.85
X3.85Y-4.7
X3.9Y-3.6
X3.9Y-4.4
X3.9Y-4.95
X3.9033Y-4.1033
X3.92Y-4.
X3.92Y-5.84
X3.98Y-4.09
X4.Y-5.55
X4.05Y-3.85
X4.05Y-4.55
X4.05Y-4.75
X4.075Y-5.
X4.0979Y-4.27
X4.1Y-4.
X4.1Y-4.48
X4.15Y-4.75
X4.15Y-5.2
X4.2Y-4.
X4.2Y-5.05
X4.2Y-5.76
X4.23Y-3.93
X4.23Y-5.59
X4.2398Y-5.1
X4.25Y-4.15
X4.25Y-4.25
X4.25Y-5.85
X4.2969Y-5.075
X4.3Y-4.075
X4.3Y-4.65
X4.3Y-5.55
X4.33Y-5.74
X4.3469Y-4.1
X4.35Y-4.25
X4.35Y-4.8
X4.35Y-4.85
X4.35Y-5.175
X4.4Y-4.3
X4.4Y-5.
X4.4Y-5.35
X4.4Y-5.95
X4.45Y-5.5
X4.45Y-5.55
X4.45Y-5.6
X4.45Y-5.7
X4.46Y-4.83
X4.46Y-5.175
X4.5Y-3.9724
X4.5512Y-5.25
X4.5712Y-5.55
X4.65Y-5.5
X4.65Y-5.7
X4.65Y-5.9
X4.67Y-4.5
X4.7Y-3.95
X4.75Y-5.4
X4.75Y-5.5
X4.775Y-4.575
X4.8Y-5.55
X4.85Y-3.85
X4.85Y-5.4
X4.85Y-5.45
X4.85Y-5.55
X4.9Y-5.8
X5.025Y-5.75
X5.05Y-3.85
X5.05Y-5.65
X5.1Y-3.85
X5.1Y-5.5
X5.3Y-3.8
X5.31Y-5.54
X5.33Y-5.25
X5.35Y-4.8
X5.35Y-5.95
X5.357Y-4.69
X5.37Y-3.83
X5.43Y-5.42
X5.45Y-4.65
X5.45Y-5.25
X5.45Y-5.35
X5.49Y-4.06
X5.65Y-3.6191
X5.7Y-4.05
X5.7Y-4.95
X5.7Y-5.2
X5.7Y-5.25
X5.7Y-5.45
X5.75Y-4.55
T2
X3.6Y-4.
X3.6Y-4.1
X3.6Y-4.2
X3.625Y-3.575
X3.725Y-3.575
X3.825Y-3.575
T3
X4.7Y-3.525
X4.7Y-3.725
X4.8Y-3.625
X5.Y-3.525
X5.Y-3.725
X5.1Y-3.625
X5.475Y-5.825
X5.575Y-5.925
X5.675Y-5.825
T4
X4.6244Y-4.25
X4.6244Y-4.35
X4.6244Y-4.45
X4.6244Y-4.55
X4.6244Y-4.65
X4.6244Y-4.75
X4.6244Y-4.85
X4.6244Y-4.95
X4.6244Y-5.05
X4.6244Y-5.15
X4.6244Y-5.25
X4.6244Y-5.35
X4.6244Y-5.45
X4.6244Y-5.55
X4.6244Y-5.65
X4.6244Y-5.75
X4.6244Y-5.85
X5.225Y-4.25
X5.225Y-4.35
X5.225Y-4.45
X5.225Y-4.55
X5.225Y-4.65
X5.225Y-4.75
X5.225Y-4.85
X5.225Y-4.95
X5.225Y-5.05
X5.225Y-5.15
X5.225Y-5.25
X5.225Y-5.35
X5.225Y-5.45
X5.225Y-5.55
X5.225Y-5.65
X5.225Y-5.75
X5.225Y-5.85
T5
X4.2516Y-3.65
X4.4484Y-3.65
X5.6Y-3.9516
X5.6Y-4.1484
T6
X3.65Y-4.5
X3.65Y-4.6
X3.65Y-4.7
X3.65Y-4.8
X3.65Y-4.9
X3.65Y-5.
X3.65Y-5.25
X3.65Y-5.35
X3.65Y-5.45
X3.65Y-5.55
X3.65Y-5.65
X3.65Y-5.75
X5.6Y-4.35
X5.6Y-4.45
X5.6Y-4.55
X5.6Y-4.65
X5.6Y-4.75
X5.6Y-4.85
X5.6Y-5.05
X5.6Y-5.15
X5.6Y-5.25
X5.6Y-5.35
X5.6Y-5.45
X5.6Y-5.55
T7
X3.4Y-3.86
X3.4Y-5.95
X5.3Y-3.97
T0
M30
